<?xml version="1.0" standalone="no"?><!DOCTYPE svg PUBLIC "-//W3C//DTD SVG 1.1//EN" "http://www.w3.org/Graphics/SVG/1.1/DTD/svg11.dtd"><svg t="1582343096480" class="icon" viewBox="0 0 1024 1024" version="1.1" xmlns="http://www.w3.org/2000/svg" p-id="3134" xmlns:xlink="http://www.w3.org/1999/xlink" width="200" height="200"><defs><style type="text/css"></style></defs><path d="M681.5 839c141.4 0 256-114.6 256-256 0-78.2-47.1-145.3-114.3-174.8-1.6-12.6-50.5-46.4-73.2-46.4-124 0-224.6 100.5-224.6 224.6 0 6 0.4 11.9 0.9 17.7-32.7-26.6-74.8-41.9-120.6-40.1-97.4 4-172.2 88.7-172.2 186.2V775c0 19.5 2.9 38.4 7.8 56.4 17.9 4.9 36.7 7.6 56.2 7.6h384z" fill="#ffffff" p-id="3135" data-spm-anchor-id="a313x.7781069.0.i9" class="selected"></path><path d="M682.7 846.6h-384C169.3 846.6 64 741.3 64 611.9v-24.7c0-110.1 86.4-203.2 192.6-207.5 34.9-1.3 69.5 6.3 100.2 22.1 10.9-125.5 116.6-224.4 245-224.4C721 177.4 823 263.7 843.7 380c71 36 116.3 109 116.3 189.2 0 153-124.4 277.4-277.3 277.4zM264.8 422.2c-2.1 0-4.3 0-6.5 0.1-83.6 3.4-151.7 77.4-151.7 164.9v24.7c0 105.9 86.1 192 192 192h384c129.4 0 234.7-105.3 234.7-234.7 0-67.3-39.9-128.2-101.6-155.3-6.9-3-11.6-9.4-12.6-16.8-13-101-99.5-177.1-201.3-177.1-112.1 0-203.2 91.2-203.2 203.2 0 5.4 0.4 10.8 0.8 16.1 0.7 8.5-3.8 16.6-11.4 20.6-7.5 3.9-16.7 3-23.4-2.3-28.2-23-63.4-35.4-99.8-35.4z" fill="#111111" p-id="3136"></path><path d="M499.2 738.1c-10.8 0-21.2-2.6-30.3-7.9-35.7-20.6-42.6-73.3-15.8-119.9C480 563.7 529 543.4 564.9 564c9.7 5.6 17.5 13.8 23.1 24.3 1.6 3.1 2.5 6.5 2.5 10v60.1c0 2.6-0.5 5.2-1.4 7.7-2.5 6.5-5.3 12.3-8.5 17.8-12.1 21-29.5 37.6-49.1 46.7-10.7 5-21.7 7.5-32.3 7.5z m35.2-139.4c-13.4 0-31.8 11.3-44.3 32.9-15.7 27.2-12.5 54.3 0.1 61.6 8 4.6 18 1.1 23.2-1.3 11.5-5.4 22.5-16.1 30.2-29.4 1.6-2.7 3-5.5 4.1-8.3v-49.7c-1.3-1.5-2.7-2.8-4.3-3.6-2.4-1.4-5.5-2.2-9-2.2z" fill="#111111" p-id="3137"></path><path d="M569.1 646.9c-11.8 0-21.3-9.5-21.3-21.3V352.2c0-8.6 5.2-16.4 13.2-19.7 8-3.3 17.1-1.5 23.3 4.6l22.5 22.5c30.7 30.7 72.9 45.1 116 39.8 11.7-1.3 22.4 6.8 23.8 18.5s-6.8 22.4-18.5 23.8c-49.9 6.2-99.1-8-137.5-39.4v223.2c-0.2 11.9-9.7 21.4-21.5 21.4z" fill="#111111" p-id="3138"></path></svg>